<mxfile host="app.diagrams.net" modified="2023-12-14T22:15:29.532Z" agent="Mozilla/5.0 (Macintosh; Intel Mac OS X 10_15_7) AppleWebKit/605.1.15 (KHTML, like Gecko) Version/17.1.2 Safari/605.1.15" version="22.1.9" etag="OcCj2tZ2TNr-Uvk4mGhL" type="github">
  <diagram name="Page-1" id="w99ZeMS9hDQz0mSDCV4V">
    <mxGraphModel>
      <root>
        <mxCell id="0" />
        <mxCell id="1" parent="0" />
      </root>
    </mxGraphModel>
  </diagram>
</mxfile>
